<?xml version="1.0" standalone="no"?>
<!DOCTYPE svg PUBLIC "-//W3C//DTD SVG 20010904//EN"
 "http://www.w3.org/TR/2001/REC-SVG-20010904/DTD/svg10.dtd">
<svg version="1.0" xmlns="http://www.w3.org/2000/svg"
 width="500.000000pt" height="500.000000pt" viewBox="0 0 500.000000 500.000000"
 preserveAspectRatio="xMidYMid meet">
<metadata>
Created by potrace 1.11, written by Peter Selinger 2001-2013
</metadata>
<g transform="translate(0.000000,500.000000) scale(0.100000,-0.100000)"
fill="#000000" stroke="none">
<path d="M2250 4491 c-25 -3 61 -6 190 -6 251 0 318 -8 525 -62 93 -24 310
-101 303 -108 -2 -2 -55 14 -118 36 -412 137 -915 134 -1324 -8 -460 -159
-844 -486 -1068 -908 -26 -49 -48 -86 -48 -81 0 17 101 198 160 286 81 121
146 198 264 315 56 55 79 81 51 59 -27 -23 -91 -84 -141 -136 -522 -540 -684
-1359 -407 -2062 266 -676 786 -1130 1468 -1283 94 -21 144 -25 340 -29 127
-3 257 -1 290 4 45 7 23 8 -90 4 -259 -8 -479 23 -736 104 -61 19 -109 37
-107 39 2 2 39 -7 82 -20 88 -27 241 -59 359 -75 101 -13 388 -13 497 0 643
79 1162 417 1479 965 35 60 60 101 57 90 -17 -50 -136 -244 -206 -337 -79
-105 -206 -242 -295 -318 -27 -23 -36 -33 -18 -21 56 38 242 221 309 305 88
109 165 235 240 391 260 542 253 1163 -20 1719 -214 437 -508 741 -912 944
-184 93 -384 156 -590 187 -99 15 -438 19 -534 6z m557 -111 c294 -50 619
-200 864 -398 127 -102 290 -281 379 -414 85 -127 172 -290 210 -396 13 -34
25 -61 27 -59 6 7 -46 145 -91 242 -80 171 -204 350 -351 505 -68 73 -71 77
-20 30 205 -187 372 -424 466 -660 165 -415 172 -921 20 -1351 -52 -148 -152
-349 -206 -414 -9 -11 -4 0 10 25 47 80 132 263 164 353 44 124 38 132 -8 12
-182 -477 -521 -850 -975 -1071 -474 -232 -969 -252 -1466 -60 -500 194 -921
626 -1105 1136 -19 52 -34 90 -35 83 0 -21 61 -186 105 -280 93 -198 211 -369
374 -538 79 -82 91 -96 46 -58 -188 159 -354 373 -456 588 -256 534 -236 1199
52 1742 47 90 118 203 126 203 5 0 2 -4 -45 -79 -52 -81 -136 -263 -176 -379
-45 -130 -46 -158 -2 -37 113 309 266 548 488 761 214 206 453 349 739 442
304 99 573 121 866 72z m-1267 -211 c-216 -130 -444 -332 -591 -524 -223 -290
-368 -664 -399 -1030 -8 -96 -9 -95 -5 40 5 160 28 287 81 442 156 460 469
834 904 1079 105 60 112 54 10 -7z m2910 -1934 c-51 -439 -320 -912 -690
-1211 -81 -66 -234 -170 -290 -199 -49 -25 -38 -16 65 53 264 176 522 448 663
699 141 252 230 540 250 808 l7 100 3 -75 c2 -41 -2 -120 -8 -175z m-3149
-1232 c13 -16 12 -17 -3 -4 -17 13 -22 21 -14 21 2 0 10 -8 17 -17z"/>
<path d="M2715 3231 c-11 -5 -76 -14 -145 -20 -334 -33 -640 -102 -717 -163
-18 -14 43 -68 78 -68 37 0 138 -27 155 -41 20 -16 17 -96 -5 -162 -11 -30
-40 -102 -65 -160 -75 -171 -147 -457 -150 -592 -1 -76 27 -155 55 -155 28 0
91 45 128 90 32 40 65 127 95 250 42 171 133 422 186 512 10 18 33 72 50 120
41 115 67 142 146 156 61 11 190 68 211 94 15 19 24 80 17 116 -7 34 -8 35
-39 23z"/>
<path d="M2900 3184 c-25 -9 -56 -26 -68 -37 -30 -28 -136 -163 -191 -245 -57
-85 -151 -281 -144 -300 4 -10 2 -13 -5 -8 -7 4 -10 2 -6 -7 3 -8 -7 -45 -21
-83 -39 -103 -75 -261 -75 -330 0 -71 23 -155 53 -196 47 -63 109 -84 274 -94
79 -4 83 -4 108 23 49 52 86 121 145 269 89 219 82 257 -38 236 -91 -15 -118
-37 -114 -92 1 -24 -7 -72 -18 -109 -36 -112 -76 -159 -108 -127 -21 21 -42
121 -42 202 0 72 31 304 51 377 17 64 88 218 123 267 17 25 38 58 46 74 8 16
29 36 47 44 57 27 58 19 43 -224 -14 -242 -17 -229 57 -240 60 -9 111 18 143
76 22 40 25 57 25 150 0 81 -5 121 -22 176 -25 77 -73 156 -114 187 -35 26
-95 30 -149 11z"/>
<path d="M4301 3054 c0 -11 3 -14 6 -6 3 7 2 16 -1 19 -3 4 -6 -2 -5 -13z"/>
<path d="M671 2994 c0 -11 3 -14 6 -6 3 7 2 16 -1 19 -3 4 -6 -2 -5 -13z"/>
<path d="M661 2954 c0 -11 3 -14 6 -6 3 7 2 16 -1 19 -3 4 -6 -2 -5 -13z"/>
<path d="M651 2914 c0 -11 3 -14 6 -6 3 7 2 16 -1 19 -3 4 -6 -2 -5 -13z"/>
<path d="M4316 1994 c-4 -14 -5 -28 -3 -31 3 -2 8 8 11 23 4 14 5 28 3 31 -3
2 -8 -8 -11 -23z"/>
<path d="M2115 4470 c-42 -11 -1 -11 50 -1 34 7 35 9 10 9 -16 0 -43 -4 -60
-8z"/>
<path d="M2058 4453 c7 -3 16 -2 19 1 4 3 -2 6 -13 5 -11 0 -14 -3 -6 -6z"/>
<path d="M2868 533 c6 -2 18 -2 25 0 6 3 1 5 -13 5 -14 0 -19 -2 -12 -5z"/>
<path d="M2813 523 c9 -2 23 -2 30 0 6 3 -1 5 -18 5 -16 0 -22 -2 -12 -5z"/>
</g>
</svg>
